# Blender 4.3.2
# www.blender.org
mtllib Circle.mtl
o Circle
v 0.000000 0.000000 0.000000
v 0.000000 1.000000 0.000000
v -0.024541 0.999699 0.000000
v -0.049068 0.998795 0.000000
v -0.073565 0.997290 0.000000
v -0.098017 0.995185 0.000000
v -0.122411 0.992480 0.000000
v -0.146730 0.989177 0.000000
v -0.170962 0.985278 0.000000
v -0.195090 0.980785 0.000000
v -0.219101 0.975702 0.000000
v -0.242980 0.970031 0.000000
v -0.266713 0.963776 0.000000
v -0.290285 0.956940 0.000000
v -0.313682 0.949528 0.000000
v -0.336890 0.941544 0.000000
v -0.359895 0.932993 0.000000
v -0.382683 0.923880 0.000000
v -0.405241 0.914210 0.000000
v -0.427555 0.903989 0.000000
v -0.449611 0.893224 0.000000
v -0.471397 0.881921 0.000000
v -0.492898 0.870087 0.000000
v -0.514103 0.857729 0.000000
v -0.534998 0.844854 0.000000
v -0.555570 0.831470 0.000000
v -0.575808 0.817585 0.000000
v -0.595699 0.803208 0.000000
v -0.615232 0.788346 0.000000
v -0.634393 0.773010 0.000000
v -0.653173 0.757209 0.000000
v -0.671559 0.740951 0.000000
v -0.689541 0.724247 0.000000
v -0.707107 0.707107 0.000000
v -0.724247 0.689541 0.000000
v -0.740951 0.671559 0.000000
v -0.757209 0.653173 0.000000
v -0.773010 0.634393 0.000000
v -0.788346 0.615232 0.000000
v -0.803208 0.595699 0.000000
v -0.817585 0.575808 0.000000
v -0.831470 0.555570 0.000000
v -0.844854 0.534998 0.000000
v -0.857729 0.514103 0.000000
v -0.870087 0.492898 0.000000
v -0.881921 0.471397 0.000000
v -0.893224 0.449611 0.000000
v -0.903989 0.427555 0.000000
v -0.914210 0.405241 0.000000
v -0.923880 0.382683 0.000000
v -0.932993 0.359895 0.000000
v -0.941544 0.336890 0.000000
v -0.949528 0.313682 0.000000
v -0.956940 0.290285 0.000000
v -0.963776 0.266713 0.000000
v -0.970031 0.242980 0.000000
v -0.975702 0.219101 0.000000
v -0.980785 0.195090 0.000000
v -0.985278 0.170962 0.000000
v -0.989177 0.146730 0.000000
v -0.992480 0.122411 0.000000
v -0.995185 0.098017 0.000000
v -0.997290 0.073565 0.000000
v -0.998795 0.049068 0.000000
v -0.999699 0.024541 0.000000
v -1.000000 0.000000 0.000000
v -0.999699 -0.024541 -0.000000
v -0.998795 -0.049068 -0.000000
v -0.997290 -0.073565 -0.000000
v -0.995185 -0.098017 -0.000000
v -0.992480 -0.122411 -0.000000
v -0.989177 -0.146730 -0.000000
v -0.985278 -0.170962 -0.000000
v -0.980785 -0.195090 -0.000000
v -0.975702 -0.219101 -0.000000
v -0.970031 -0.242980 -0.000000
v -0.963776 -0.266713 -0.000000
v -0.956940 -0.290285 -0.000000
v -0.949528 -0.313682 -0.000000
v -0.941544 -0.336890 -0.000000
v -0.932993 -0.359895 -0.000000
v -0.923880 -0.382683 -0.000000
v -0.914210 -0.405241 -0.000000
v -0.903989 -0.427555 -0.000000
v -0.893224 -0.449611 -0.000000
v -0.881921 -0.471397 -0.000000
v -0.870087 -0.492898 -0.000000
v -0.857729 -0.514103 -0.000000
v -0.844854 -0.534998 -0.000000
v -0.831470 -0.555570 -0.000000
v -0.817585 -0.575808 -0.000000
v -0.803208 -0.595699 -0.000000
v -0.788346 -0.615232 -0.000000
v -0.773010 -0.634393 -0.000000
v -0.757209 -0.653173 -0.000000
v -0.740951 -0.671559 -0.000000
v -0.724247 -0.689541 -0.000000
v -0.707107 -0.707107 -0.000000
v -0.689541 -0.724247 -0.000000
v -0.671559 -0.740951 -0.000000
v -0.653173 -0.757209 -0.000000
v -0.634393 -0.773010 -0.000000
v -0.615232 -0.788346 -0.000000
v -0.595699 -0.803208 -0.000000
v -0.575808 -0.817585 -0.000000
v -0.555570 -0.831470 -0.000000
v -0.534998 -0.844854 -0.000000
v -0.514103 -0.857729 -0.000000
v -0.492898 -0.870087 -0.000000
v -0.471397 -0.881921 -0.000000
v -0.449611 -0.893224 -0.000000
v -0.427555 -0.903989 -0.000000
v -0.405241 -0.914210 -0.000000
v -0.382683 -0.923880 -0.000000
v -0.359895 -0.932993 -0.000000
v -0.336890 -0.941544 -0.000000
v -0.313682 -0.949528 -0.000000
v -0.290285 -0.956940 -0.000000
v -0.266713 -0.963776 -0.000000
v -0.242980 -0.970031 -0.000000
v -0.219101 -0.975702 -0.000000
v -0.195090 -0.980785 -0.000000
v -0.170962 -0.985278 -0.000000
v -0.146730 -0.989177 -0.000000
v -0.122411 -0.992480 -0.000000
v -0.098017 -0.995185 -0.000000
v -0.073565 -0.997290 -0.000000
v -0.049068 -0.998795 -0.000000
v -0.024541 -0.999699 -0.000000
v 0.000000 -1.000000 -0.000000
v 0.024541 -0.999699 -0.000000
v 0.049068 -0.998795 -0.000000
v 0.073565 -0.997290 -0.000000
v 0.098017 -0.995185 -0.000000
v 0.122411 -0.992480 -0.000000
v 0.146730 -0.989177 -0.000000
v 0.170962 -0.985278 -0.000000
v 0.195090 -0.980785 -0.000000
v 0.219101 -0.975702 -0.000000
v 0.242980 -0.970031 -0.000000
v 0.266713 -0.963776 -0.000000
v 0.290285 -0.956940 -0.000000
v 0.313682 -0.949528 -0.000000
v 0.336890 -0.941544 -0.000000
v 0.359895 -0.932993 -0.000000
v 0.382683 -0.923880 -0.000000
v 0.405241 -0.914210 -0.000000
v 0.427555 -0.903989 -0.000000
v 0.449611 -0.893224 -0.000000
v 0.471397 -0.881921 -0.000000
v 0.492898 -0.870087 -0.000000
v 0.514103 -0.857729 -0.000000
v 0.534998 -0.844854 -0.000000
v 0.555570 -0.831470 -0.000000
v 0.575808 -0.817585 -0.000000
v 0.595699 -0.803208 -0.000000
v 0.615232 -0.788346 -0.000000
v 0.634393 -0.773010 -0.000000
v 0.653173 -0.757209 -0.000000
v 0.671559 -0.740951 -0.000000
v 0.689541 -0.724247 -0.000000
v 0.707107 -0.707107 -0.000000
v 0.724247 -0.689541 -0.000000
v 0.740951 -0.671559 -0.000000
v 0.757209 -0.653173 -0.000000
v 0.773010 -0.634393 -0.000000
v 0.788346 -0.615232 -0.000000
v 0.803208 -0.595699 -0.000000
v 0.817585 -0.575808 -0.000000
v 0.831470 -0.555570 -0.000000
v 0.844854 -0.534998 -0.000000
v 0.857729 -0.514103 -0.000000
v 0.870087 -0.492898 -0.000000
v 0.881921 -0.471397 -0.000000
v 0.893224 -0.449611 -0.000000
v 0.903989 -0.427555 -0.000000
v 0.914210 -0.405241 -0.000000
v 0.923880 -0.382683 -0.000000
v 0.932993 -0.359895 -0.000000
v 0.941544 -0.336890 -0.000000
v 0.949528 -0.313682 -0.000000
v 0.956940 -0.290285 -0.000000
v 0.963776 -0.266713 -0.000000
v 0.970031 -0.242980 -0.000000
v 0.975702 -0.219101 -0.000000
v 0.980785 -0.195090 -0.000000
v 0.985278 -0.170962 -0.000000
v 0.989177 -0.146730 -0.000000
v 0.992480 -0.122411 -0.000000
v 0.995185 -0.098017 -0.000000
v 0.997290 -0.073565 -0.000000
v 0.998795 -0.049068 -0.000000
v 0.999699 -0.024541 -0.000000
v 1.000000 0.000000 0.000000
v 0.999699 0.024541 0.000000
v 0.998795 0.049068 0.000000
v 0.997290 0.073565 0.000000
v 0.995185 0.098017 0.000000
v 0.992480 0.122411 0.000000
v 0.989177 0.146730 0.000000
v 0.985278 0.170962 0.000000
v 0.980785 0.195090 0.000000
v 0.975702 0.219101 0.000000
v 0.970031 0.242980 0.000000
v 0.963776 0.266713 0.000000
v 0.956940 0.290285 0.000000
v 0.949528 0.313682 0.000000
v 0.941544 0.336890 0.000000
v 0.932993 0.359895 0.000000
v 0.923880 0.382683 0.000000
v 0.914210 0.405241 0.000000
v 0.903989 0.427555 0.000000
v 0.893224 0.449611 0.000000
v 0.881921 0.471397 0.000000
v 0.870087 0.492898 0.000000
v 0.857729 0.514103 0.000000
v 0.844854 0.534998 0.000000
v 0.831470 0.555570 0.000000
v 0.817585 0.575808 0.000000
v 0.803208 0.595699 0.000000
v 0.788346 0.615232 0.000000
v 0.773010 0.634393 0.000000
v 0.757209 0.653173 0.000000
v 0.740951 0.671559 0.000000
v 0.724247 0.689541 0.000000
v 0.707107 0.707107 0.000000
v 0.689541 0.724247 0.000000
v 0.671559 0.740951 0.000000
v 0.653173 0.757209 0.000000
v 0.634393 0.773010 0.000000
v 0.615232 0.788346 0.000000
v 0.595699 0.803208 0.000000
v 0.575808 0.817585 0.000000
v 0.555570 0.831470 0.000000
v 0.534998 0.844854 0.000000
v 0.514103 0.857729 0.000000
v 0.492898 0.870087 0.000000
v 0.471397 0.881921 0.000000
v 0.449611 0.893224 0.000000
v 0.427555 0.903989 0.000000
v 0.405241 0.914210 0.000000
v 0.382683 0.923880 0.000000
v 0.359895 0.932993 0.000000
v 0.336890 0.941544 0.000000
v 0.313682 0.949528 0.000000
v 0.290285 0.956940 0.000000
v 0.266713 0.963776 0.000000
v 0.242980 0.970031 0.000000
v 0.219101 0.975702 0.000000
v 0.195090 0.980785 0.000000
v 0.170962 0.985278 0.000000
v 0.146730 0.989177 0.000000
v 0.122411 0.992480 0.000000
v 0.098017 0.995185 0.000000
v 0.073565 0.997290 0.000000
v 0.049068 0.998795 0.000000
v 0.024541 0.999699 0.000000
vn -0.0000 -0.0000 1.0000
vt 0.500000 0.500000
vt 0.500000 1.000000
vt 0.487729 0.999849
vt 0.475466 0.999398
vt 0.463218 0.998645
vt 0.450991 0.997592
vt 0.438795 0.996240
vt 0.426635 0.994588
vt 0.414519 0.992639
vt 0.402455 0.990393
vt 0.390449 0.987851
vt 0.378510 0.985016
vt 0.366644 0.981888
vt 0.354858 0.978470
vt 0.343159 0.974764
vt 0.331555 0.970772
vt 0.320052 0.966496
vt 0.308658 0.961940
vt 0.297379 0.957105
vt 0.286222 0.951995
vt 0.275194 0.946612
vt 0.264302 0.940961
vt 0.253551 0.935043
vt 0.242949 0.928864
vt 0.232501 0.922427
vt 0.222215 0.915735
vt 0.212096 0.908792
vt 0.202150 0.901604
vt 0.192384 0.894173
vt 0.182803 0.886505
vt 0.173414 0.878604
vt 0.164221 0.870476
vt 0.155230 0.862124
vt 0.146447 0.853553
vt 0.137876 0.844770
vt 0.129524 0.835779
vt 0.121396 0.826586
vt 0.113495 0.817197
vt 0.105827 0.807616
vt 0.098396 0.797850
vt 0.091208 0.787904
vt 0.084265 0.777785
vt 0.077573 0.767499
vt 0.071136 0.757051
vt 0.064957 0.746449
vt 0.059039 0.735698
vt 0.053388 0.724806
vt 0.048005 0.713778
vt 0.042895 0.702621
vt 0.038060 0.691342
vt 0.033504 0.679947
vt 0.029228 0.668445
vt 0.025236 0.656841
vt 0.021530 0.645142
vt 0.018112 0.633356
vt 0.014984 0.621490
vt 0.012149 0.609551
vt 0.009607 0.597545
vt 0.007361 0.585481
vt 0.005412 0.573365
vt 0.003760 0.561205
vt 0.002408 0.549009
vt 0.001355 0.536782
vt 0.000602 0.524534
vt 0.000151 0.512271
vt 0.000000 0.500000
vt 0.000151 0.487729
vt 0.000602 0.475466
vt 0.001355 0.463218
vt 0.002408 0.450991
vt 0.003760 0.438795
vt 0.005412 0.426635
vt 0.007361 0.414519
vt 0.009607 0.402455
vt 0.012149 0.390449
vt 0.014984 0.378510
vt 0.018112 0.366644
vt 0.021530 0.354858
vt 0.025236 0.343159
vt 0.029228 0.331555
vt 0.033504 0.320052
vt 0.038060 0.308658
vt 0.042895 0.297379
vt 0.048005 0.286222
vt 0.053388 0.275194
vt 0.059039 0.264302
vt 0.064957 0.253551
vt 0.071136 0.242949
vt 0.077573 0.232501
vt 0.084265 0.222215
vt 0.091208 0.212096
vt 0.098396 0.202150
vt 0.105827 0.192384
vt 0.113495 0.182803
vt 0.121396 0.173414
vt 0.129524 0.164221
vt 0.137876 0.155230
vt 0.146447 0.146447
vt 0.155230 0.137876
vt 0.164221 0.129524
vt 0.173414 0.121396
vt 0.182803 0.113495
vt 0.192384 0.105827
vt 0.202150 0.098396
vt 0.212096 0.091208
vt 0.222215 0.084265
vt 0.232501 0.077573
vt 0.242949 0.071136
vt 0.253551 0.064957
vt 0.264302 0.059039
vt 0.275194 0.053388
vt 0.286222 0.048005
vt 0.297379 0.042895
vt 0.308658 0.038060
vt 0.320052 0.033504
vt 0.331555 0.029228
vt 0.343159 0.025236
vt 0.354858 0.021530
vt 0.366644 0.018112
vt 0.378510 0.014984
vt 0.390449 0.012149
vt 0.402455 0.009607
vt 0.414519 0.007361
vt 0.426635 0.005412
vt 0.438795 0.003760
vt 0.450991 0.002408
vt 0.463218 0.001355
vt 0.475466 0.000602
vt 0.487729 0.000151
vt 0.500000 0.000000
vt 0.512271 0.000151
vt 0.524534 0.000602
vt 0.536782 0.001355
vt 0.549009 0.002408
vt 0.561205 0.003760
vt 0.573365 0.005412
vt 0.585481 0.007361
vt 0.597545 0.009607
vt 0.609551 0.012149
vt 0.621490 0.014984
vt 0.633356 0.018112
vt 0.645142 0.021530
vt 0.656841 0.025236
vt 0.668445 0.029228
vt 0.679947 0.033504
vt 0.691342 0.038060
vt 0.702621 0.042895
vt 0.713778 0.048005
vt 0.724806 0.053388
vt 0.735698 0.059039
vt 0.746449 0.064957
vt 0.757051 0.071136
vt 0.767499 0.077573
vt 0.777785 0.084265
vt 0.787904 0.091208
vt 0.797850 0.098396
vt 0.807616 0.105827
vt 0.817197 0.113495
vt 0.826586 0.121396
vt 0.835779 0.129524
vt 0.844770 0.137876
vt 0.853553 0.146447
vt 0.862124 0.155230
vt 0.870476 0.164221
vt 0.878604 0.173414
vt 0.886505 0.182803
vt 0.894173 0.192384
vt 0.901604 0.202150
vt 0.908792 0.212096
vt 0.915735 0.222215
vt 0.922427 0.232501
vt 0.928864 0.242949
vt 0.935043 0.253551
vt 0.940961 0.264302
vt 0.946612 0.275194
vt 0.951995 0.286222
vt 0.957105 0.297379
vt 0.961940 0.308658
vt 0.966496 0.320052
vt 0.970772 0.331555
vt 0.974764 0.343159
vt 0.978470 0.354858
vt 0.981888 0.366644
vt 0.985016 0.378510
vt 0.987851 0.390449
vt 0.990393 0.402455
vt 0.992639 0.414519
vt 0.994588 0.426635
vt 0.996240 0.438795
vt 0.997592 0.450991
vt 0.998645 0.463218
vt 0.999398 0.475466
vt 0.999849 0.487729
vt 1.000000 0.500000
vt 0.999849 0.512271
vt 0.999398 0.524534
vt 0.998645 0.536782
vt 0.997592 0.549009
vt 0.996240 0.561205
vt 0.994588 0.573365
vt 0.992639 0.585481
vt 0.990393 0.597545
vt 0.987851 0.609551
vt 0.985016 0.621490
vt 0.981888 0.633356
vt 0.978470 0.645142
vt 0.974764 0.656841
vt 0.970772 0.668445
vt 0.966496 0.679947
vt 0.961940 0.691342
vt 0.957105 0.702621
vt 0.951995 0.713778
vt 0.946612 0.724806
vt 0.940961 0.735698
vt 0.935043 0.746449
vt 0.928864 0.757051
vt 0.922427 0.767499
vt 0.915735 0.777785
vt 0.908792 0.787904
vt 0.901604 0.797850
vt 0.894173 0.807616
vt 0.886505 0.817197
vt 0.878604 0.826586
vt 0.870476 0.835779
vt 0.862124 0.844770
vt 0.853553 0.853553
vt 0.844770 0.862124
vt 0.835779 0.870476
vt 0.826586 0.878604
vt 0.817197 0.886505
vt 0.807616 0.894173
vt 0.797850 0.901604
vt 0.787904 0.908792
vt 0.777785 0.915735
vt 0.767499 0.922427
vt 0.757051 0.928864
vt 0.746449 0.935043
vt 0.735698 0.940961
vt 0.724806 0.946612
vt 0.713778 0.951995
vt 0.702621 0.957105
vt 0.691342 0.961940
vt 0.679947 0.966496
vt 0.668445 0.970772
vt 0.656841 0.974764
vt 0.645142 0.978470
vt 0.633356 0.981888
vt 0.621490 0.985016
vt 0.609551 0.987851
vt 0.597545 0.990393
vt 0.585481 0.992639
vt 0.573365 0.994588
vt 0.561205 0.996240
vt 0.549009 0.997592
vt 0.536782 0.998645
vt 0.524534 0.999398
vt 0.512271 0.999849
s 0
f 1/1/1 2/2/1 3/3/1
f 1/1/1 3/3/1 4/4/1
f 1/1/1 4/4/1 5/5/1
f 1/1/1 5/5/1 6/6/1
f 1/1/1 6/6/1 7/7/1
f 1/1/1 7/7/1 8/8/1
f 1/1/1 8/8/1 9/9/1
f 1/1/1 9/9/1 10/10/1
f 1/1/1 10/10/1 11/11/1
f 1/1/1 11/11/1 12/12/1
f 1/1/1 12/12/1 13/13/1
f 1/1/1 13/13/1 14/14/1
f 1/1/1 14/14/1 15/15/1
f 1/1/1 15/15/1 16/16/1
f 1/1/1 16/16/1 17/17/1
f 1/1/1 17/17/1 18/18/1
f 1/1/1 18/18/1 19/19/1
f 1/1/1 19/19/1 20/20/1
f 1/1/1 20/20/1 21/21/1
f 1/1/1 21/21/1 22/22/1
f 1/1/1 22/22/1 23/23/1
f 1/1/1 23/23/1 24/24/1
f 1/1/1 24/24/1 25/25/1
f 1/1/1 25/25/1 26/26/1
f 1/1/1 26/26/1 27/27/1
f 1/1/1 27/27/1 28/28/1
f 1/1/1 28/28/1 29/29/1
f 1/1/1 29/29/1 30/30/1
f 1/1/1 30/30/1 31/31/1
f 1/1/1 31/31/1 32/32/1
f 1/1/1 32/32/1 33/33/1
f 1/1/1 33/33/1 34/34/1
f 1/1/1 34/34/1 35/35/1
f 1/1/1 35/35/1 36/36/1
f 1/1/1 36/36/1 37/37/1
f 1/1/1 37/37/1 38/38/1
f 1/1/1 38/38/1 39/39/1
f 1/1/1 39/39/1 40/40/1
f 1/1/1 40/40/1 41/41/1
f 1/1/1 41/41/1 42/42/1
f 1/1/1 42/42/1 43/43/1
f 1/1/1 43/43/1 44/44/1
f 1/1/1 44/44/1 45/45/1
f 1/1/1 45/45/1 46/46/1
f 1/1/1 46/46/1 47/47/1
f 1/1/1 47/47/1 48/48/1
f 1/1/1 48/48/1 49/49/1
f 1/1/1 49/49/1 50/50/1
f 1/1/1 50/50/1 51/51/1
f 1/1/1 51/51/1 52/52/1
f 1/1/1 52/52/1 53/53/1
f 1/1/1 53/53/1 54/54/1
f 1/1/1 54/54/1 55/55/1
f 1/1/1 55/55/1 56/56/1
f 1/1/1 56/56/1 57/57/1
f 1/1/1 57/57/1 58/58/1
f 1/1/1 58/58/1 59/59/1
f 1/1/1 59/59/1 60/60/1
f 1/1/1 60/60/1 61/61/1
f 1/1/1 61/61/1 62/62/1
f 1/1/1 62/62/1 63/63/1
f 1/1/1 63/63/1 64/64/1
f 1/1/1 64/64/1 65/65/1
f 1/1/1 65/65/1 66/66/1
f 1/1/1 66/66/1 67/67/1
f 1/1/1 67/67/1 68/68/1
f 1/1/1 68/68/1 69/69/1
f 1/1/1 69/69/1 70/70/1
f 1/1/1 70/70/1 71/71/1
f 1/1/1 71/71/1 72/72/1
f 1/1/1 72/72/1 73/73/1
f 1/1/1 73/73/1 74/74/1
f 1/1/1 74/74/1 75/75/1
f 1/1/1 75/75/1 76/76/1
f 1/1/1 76/76/1 77/77/1
f 1/1/1 77/77/1 78/78/1
f 1/1/1 78/78/1 79/79/1
f 1/1/1 79/79/1 80/80/1
f 1/1/1 80/80/1 81/81/1
f 1/1/1 81/81/1 82/82/1
f 1/1/1 82/82/1 83/83/1
f 1/1/1 83/83/1 84/84/1
f 1/1/1 84/84/1 85/85/1
f 1/1/1 85/85/1 86/86/1
f 1/1/1 86/86/1 87/87/1
f 1/1/1 87/87/1 88/88/1
f 1/1/1 88/88/1 89/89/1
f 1/1/1 89/89/1 90/90/1
f 1/1/1 90/90/1 91/91/1
f 1/1/1 91/91/1 92/92/1
f 1/1/1 92/92/1 93/93/1
f 1/1/1 93/93/1 94/94/1
f 1/1/1 94/94/1 95/95/1
f 1/1/1 95/95/1 96/96/1
f 1/1/1 96/96/1 97/97/1
f 1/1/1 97/97/1 98/98/1
f 1/1/1 98/98/1 99/99/1
f 1/1/1 99/99/1 100/100/1
f 1/1/1 100/100/1 101/101/1
f 1/1/1 101/101/1 102/102/1
f 1/1/1 102/102/1 103/103/1
f 1/1/1 103/103/1 104/104/1
f 1/1/1 104/104/1 105/105/1
f 1/1/1 105/105/1 106/106/1
f 1/1/1 106/106/1 107/107/1
f 1/1/1 107/107/1 108/108/1
f 1/1/1 108/108/1 109/109/1
f 1/1/1 109/109/1 110/110/1
f 1/1/1 110/110/1 111/111/1
f 1/1/1 111/111/1 112/112/1
f 1/1/1 112/112/1 113/113/1
f 1/1/1 113/113/1 114/114/1
f 1/1/1 114/114/1 115/115/1
f 1/1/1 115/115/1 116/116/1
f 1/1/1 116/116/1 117/117/1
f 1/1/1 117/117/1 118/118/1
f 1/1/1 118/118/1 119/119/1
f 1/1/1 119/119/1 120/120/1
f 1/1/1 120/120/1 121/121/1
f 1/1/1 121/121/1 122/122/1
f 1/1/1 122/122/1 123/123/1
f 1/1/1 123/123/1 124/124/1
f 1/1/1 124/124/1 125/125/1
f 1/1/1 125/125/1 126/126/1
f 1/1/1 126/126/1 127/127/1
f 1/1/1 127/127/1 128/128/1
f 1/1/1 128/128/1 129/129/1
f 1/1/1 129/129/1 130/130/1
f 1/1/1 130/130/1 131/131/1
f 1/1/1 131/131/1 132/132/1
f 1/1/1 132/132/1 133/133/1
f 1/1/1 133/133/1 134/134/1
f 1/1/1 134/134/1 135/135/1
f 1/1/1 135/135/1 136/136/1
f 1/1/1 136/136/1 137/137/1
f 1/1/1 137/137/1 138/138/1
f 1/1/1 138/138/1 139/139/1
f 1/1/1 139/139/1 140/140/1
f 1/1/1 140/140/1 141/141/1
f 1/1/1 141/141/1 142/142/1
f 1/1/1 142/142/1 143/143/1
f 1/1/1 143/143/1 144/144/1
f 1/1/1 144/144/1 145/145/1
f 1/1/1 145/145/1 146/146/1
f 1/1/1 146/146/1 147/147/1
f 1/1/1 147/147/1 148/148/1
f 1/1/1 148/148/1 149/149/1
f 1/1/1 149/149/1 150/150/1
f 1/1/1 150/150/1 151/151/1
f 1/1/1 151/151/1 152/152/1
f 1/1/1 152/152/1 153/153/1
f 1/1/1 153/153/1 154/154/1
f 1/1/1 154/154/1 155/155/1
f 1/1/1 155/155/1 156/156/1
f 1/1/1 156/156/1 157/157/1
f 1/1/1 157/157/1 158/158/1
f 1/1/1 158/158/1 159/159/1
f 1/1/1 159/159/1 160/160/1
f 1/1/1 160/160/1 161/161/1
f 1/1/1 161/161/1 162/162/1
f 1/1/1 162/162/1 163/163/1
f 1/1/1 163/163/1 164/164/1
f 1/1/1 164/164/1 165/165/1
f 1/1/1 165/165/1 166/166/1
f 1/1/1 166/166/1 167/167/1
f 1/1/1 167/167/1 168/168/1
f 1/1/1 168/168/1 169/169/1
f 1/1/1 169/169/1 170/170/1
f 1/1/1 170/170/1 171/171/1
f 1/1/1 171/171/1 172/172/1
f 1/1/1 172/172/1 173/173/1
f 1/1/1 173/173/1 174/174/1
f 1/1/1 174/174/1 175/175/1
f 1/1/1 175/175/1 176/176/1
f 1/1/1 176/176/1 177/177/1
f 1/1/1 177/177/1 178/178/1
f 1/1/1 178/178/1 179/179/1
f 1/1/1 179/179/1 180/180/1
f 1/1/1 180/180/1 181/181/1
f 1/1/1 181/181/1 182/182/1
f 1/1/1 182/182/1 183/183/1
f 1/1/1 183/183/1 184/184/1
f 1/1/1 184/184/1 185/185/1
f 1/1/1 185/185/1 186/186/1
f 1/1/1 186/186/1 187/187/1
f 1/1/1 187/187/1 188/188/1
f 1/1/1 188/188/1 189/189/1
f 1/1/1 189/189/1 190/190/1
f 1/1/1 190/190/1 191/191/1
f 1/1/1 191/191/1 192/192/1
f 1/1/1 192/192/1 193/193/1
f 1/1/1 193/193/1 194/194/1
f 1/1/1 194/194/1 195/195/1
f 1/1/1 195/195/1 196/196/1
f 1/1/1 196/196/1 197/197/1
f 1/1/1 197/197/1 198/198/1
f 1/1/1 198/198/1 199/199/1
f 1/1/1 199/199/1 200/200/1
f 1/1/1 200/200/1 201/201/1
f 1/1/1 201/201/1 202/202/1
f 1/1/1 202/202/1 203/203/1
f 1/1/1 203/203/1 204/204/1
f 1/1/1 204/204/1 205/205/1
f 1/1/1 205/205/1 206/206/1
f 1/1/1 206/206/1 207/207/1
f 1/1/1 207/207/1 208/208/1
f 1/1/1 208/208/1 209/209/1
f 1/1/1 209/209/1 210/210/1
f 1/1/1 210/210/1 211/211/1
f 1/1/1 211/211/1 212/212/1
f 1/1/1 212/212/1 213/213/1
f 1/1/1 213/213/1 214/214/1
f 1/1/1 214/214/1 215/215/1
f 1/1/1 215/215/1 216/216/1
f 1/1/1 216/216/1 217/217/1
f 1/1/1 217/217/1 218/218/1
f 1/1/1 218/218/1 219/219/1
f 1/1/1 219/219/1 220/220/1
f 1/1/1 220/220/1 221/221/1
f 1/1/1 221/221/1 222/222/1
f 1/1/1 222/222/1 223/223/1
f 1/1/1 223/223/1 224/224/1
f 1/1/1 224/224/1 225/225/1
f 1/1/1 225/225/1 226/226/1
f 1/1/1 226/226/1 227/227/1
f 1/1/1 227/227/1 228/228/1
f 1/1/1 228/228/1 229/229/1
f 1/1/1 229/229/1 230/230/1
f 1/1/1 230/230/1 231/231/1
f 1/1/1 231/231/1 232/232/1
f 1/1/1 232/232/1 233/233/1
f 1/1/1 233/233/1 234/234/1
f 1/1/1 234/234/1 235/235/1
f 1/1/1 235/235/1 236/236/1
f 1/1/1 236/236/1 237/237/1
f 1/1/1 237/237/1 238/238/1
f 1/1/1 238/238/1 239/239/1
f 1/1/1 239/239/1 240/240/1
f 1/1/1 240/240/1 241/241/1
f 1/1/1 241/241/1 242/242/1
f 1/1/1 242/242/1 243/243/1
f 1/1/1 243/243/1 244/244/1
f 1/1/1 244/244/1 245/245/1
f 1/1/1 245/245/1 246/246/1
f 1/1/1 246/246/1 247/247/1
f 1/1/1 247/247/1 248/248/1
f 1/1/1 248/248/1 249/249/1
f 1/1/1 249/249/1 250/250/1
f 1/1/1 250/250/1 251/251/1
f 1/1/1 251/251/1 252/252/1
f 1/1/1 252/252/1 253/253/1
f 1/1/1 253/253/1 254/254/1
f 1/1/1 254/254/1 255/255/1
f 1/1/1 255/255/1 256/256/1
f 1/1/1 256/256/1 257/257/1
f 1/1/1 257/257/1 2/2/1
